<?xml version="1.0" encoding="UTF-8"?>
<!DOCTYPE svg PUBLIC "-//W3C//DTD SVG 1.1//EN" "http://www.w3.org/Graphics/SVG/1.1/DTD/svg11.dtd">
<!-- Creator: CorelDRAW 2018 (64-Bit) -->
<svg xmlns="http://www.w3.org/2000/svg" xml:space="preserve" width="191.438mm" height="135.118mm" version="1.1" style="shape-rendering:geometricPrecision; text-rendering:geometricPrecision; image-rendering:optimizeQuality; fill-rule:evenodd; clip-rule:evenodd"
viewBox="0 0 3320.17 2343.39"
 xmlns:xlink="http://www.w3.org/1999/xlink">
 <defs>
  <style type="text/css">
   <![CDATA[
    .str0 {stroke:#C4AF7C;stroke-width:208.12;stroke-miterlimit:22.9256}
    .fil0 {fill:none}
    .fil1 {fill:#C4AF7C}
   ]]>
  </style>
 </defs>
 <g id="Layer_x0020_1">
  <metadata id="CorelCorpID_0Corel-Layer"/>
  <g id="_1913807828336">
   <rect class="fil0 str0" x="104.06" y="104.06" width="3112.05" height="2135.26" rx="255.46" ry="260.15"/>
   <path class="fil1" d="M2218.5 733.22l722.09 -564.16c44.65,-34.88 109.72,-26.9 144.61,17.76l0 0c34.88,44.65 26.89,109.73 -17.76,144.61l-826.48 645.72c8.88,-29.72 13.54,-60.15 13.54,-91.82 0,-54.85 -12.53,-107.02 -36,-152.11z"/>
   <path class="fil1" d="M1119.7 750.37l-744.84 -581.93c-44.65,-34.88 -109.72,-26.9 -144.61,17.76l-0 0c-34.88,44.65 -26.89,109.73 17.76,144.61l869.02 678.95c-16.38,-40.07 -25.07,-81.09 -25.07,-124.44 0,-48.02 9.61,-93.99 27.75,-134.95z"/>
   <path class="fil0 str0" d="M2153.15 666.88c-48.96,-55.55 -116.94,-86.15 -191.4,-86.15 -103.39,0 -170.23,63.7 -208.09,117.13 -33.96,47.93 -51.68,96.24 -57.72,114.78 -5.06,15.52 -19.53,26.03 -35.85,26.03 -16.33,0 -30.8,-10.51 -35.85,-26.03 -6.04,-18.54 -23.76,-66.85 -57.72,-114.78 -37.86,-53.43 -104.7,-117.13 -208.09,-117.13 -74.46,0 -142.44,30.6 -191.4,86.15 -48.41,54.93 -75.07,129.25 -75.07,209.27 0,193.59 172.82,340.85 434.41,563.76 42.95,36.59 87.14,74.25 133.73,114.75 46.59,-40.51 90.78,-78.16 133.72,-114.75 261.6,-222.92 434.42,-370.18 434.42,-563.77 0,-80.02 -26.66,-154.34 -75.07,-209.27z"/>
  </g>
 </g>
</svg>
