<svg xmlns="http://www.w3.org/2000/svg" viewBox="0 0 29.66 27.19"><g id="Layer_2" data-name="Layer 2"><g id="Layer_1-2" data-name="Layer 1"><path d="M7.72,21.63a4.62,4.62,0,0,1-4.37-3.15l-.05-.15A4.53,4.53,0,0,1,3.09,17V8.57l-3,10a2.81,2.81,0,0,0,2,3.4L21.17,27.1a2.94,2.94,0,0,0,.71.09,2.75,2.75,0,0,0,2.67-2l1.12-3.54Z"/><path d="M11.12,8.65A2.47,2.47,0,1,0,8.65,6.18,2.47,2.47,0,0,0,11.12,8.65Z"/><path d="M26.57,0H8A3.1,3.1,0,0,0,4.94,3.09V16.68A3.09,3.09,0,0,0,8,19.77H26.57a3.09,3.09,0,0,0,3.09-3.09V3.09A3.1,3.1,0,0,0,26.57,0ZM8,2.47H26.57a.62.62,0,0,1,.62.62v8.77L23.28,7.31a2.15,2.15,0,0,0-3.3,0l-4.59,5.51-1.5-1.49a2.15,2.15,0,0,0-3.06,0L7.41,14.76V3.09A.62.62,0,0,1,8,2.47Z"/></g></g></svg>