<?xml version="1.0" encoding="UTF-8"?>
<!DOCTYPE svg PUBLIC "-//W3C//DTD SVG 1.1//EN" "http://www.w3.org/Graphics/SVG/1.1/DTD/svg11.dtd">
<!-- Creator: CorelDRAW 2018 (64-Bit) -->
<svg xmlns="http://www.w3.org/2000/svg" xml:space="preserve" width="4.1971mm" height="3.4974mm" version="1.1" style="shape-rendering:geometricPrecision; text-rendering:geometricPrecision; image-rendering:optimizeQuality; fill-rule:evenodd; clip-rule:evenodd"
viewBox="0 0 0.62 0.52"
 xmlns:xlink="http://www.w3.org/1999/xlink">
 <defs>
  <style type="text/css">
   <![CDATA[
    .str0 {stroke:#1B2338;stroke-width:0.02;stroke-miterlimit:22.9256}
    .fil0 {fill:#1B2338}
   ]]>
  </style>
 </defs>
 <g id="Layer_x0020_1">
  <metadata id="CorelCorpID_0Corel-Layer"/>
  <g id="_2879992559744">
   <g>
    <g>
     <path class="fil0 str0" d="M0.4 0.32c-0,-0 -0.01,-0.01 -0.01,-0.01l-0.13 0.02c-0,0 -0.01,0.01 -0.01,0.01 0,0 0,0.01 0.01,0.01 0,0 0,-0 0,-0l0.13 -0.02c0,-0 0.01,-0.01 0.01,-0.01z"/>
    </g>
   </g>
   <g>
    <g>
     <path class="fil0 str0" d="M0.22 0.35c-0,-0 -0.01,-0.01 -0.01,-0.01l-0.02 0c-0,0 -0.01,0.01 -0.01,0.01 0,0 0,0.01 0.01,0.01 0,0 0,-0 0,-0l0.02 -0c0,-0 0.01,-0.01 0.01,-0.01z"/>
    </g>
   </g>
   <g>
    <g>
     <path class="fil0 str0" d="M0.4 0.37c-0,-0 -0.01,-0.01 -0.01,-0.01l-0.01 0c-0,0 -0.01,0.01 -0.01,0.01 0,0 0,0.01 0.01,0.01 0,0 0,-0 0,-0l0.01 -0c0,-0 0.01,-0.01 0.01,-0.01z"/>
    </g>
   </g>
   <g>
    <g>
     <path class="fil0 str0" d="M0.35 0.38c-0,-0 -0.01,-0.01 -0.01,-0.01l-0.14 0.02c-0,0 -0.01,0.01 -0.01,0.01 0,0 0,0.01 0.01,0.01 0,0 0,-0 0,-0l0.14 -0.02c0,-0 0.01,-0.01 0.01,-0.01z"/>
    </g>
   </g>
   <g>
    <g>
     <path class="fil0 str0" d="M0.38 0.13c-0.01,-0.01 -0.03,-0.02 -0.05,-0.01 -0.02,0 -0.03,0.01 -0.04,0.02 -0.01,-0.01 -0.03,-0.01 -0.04,-0.01 -0.03,0 -0.06,0.03 -0.06,0.07 -0,0.03 0.02,0.06 0.05,0.08 0.03,0.02 0.05,0.02 0.05,0.02 0,0 0,0 0,0 0,0 0,-0 0,-0 0,-0 0.03,-0.01 0.05,-0.03 0.03,-0.03 0.05,-0.06 0.05,-0.09 -0,-0.02 -0.01,-0.03 -0.02,-0.04zm-0.09 0.15c-0.02,-0.01 -0.09,-0.03 -0.09,-0.09 0,-0.03 0.02,-0.05 0.05,-0.05 0.01,-0 0.03,0 0.04,0.01 0,0 0,0 0.01,0 0,-0 0.01,-0 0.01,-0 0.01,-0.01 0.02,-0.02 0.04,-0.02 0.01,-0 0.02,0 0.03,0.01 0.01,0.01 0.01,0.02 0.01,0.03 0,0.06 -0.07,0.1 -0.09,0.11z"/>
    </g>
   </g>
   <g>
    <g>
     <path class="fil0 str0" d="M0.59 0.09l-0.04 0 0 -0.06c0,-0.01 -0,-0.01 -0.01,-0.02 -0.01,-0 -0.01,-0.01 -0.02,-0.01l-0.49 0.08c-0,0 -0.01,0 -0.01,0.01l0 0.4c0,0 0,0 0,0 0,0 0,0 0,0 0,0 0,0 0,0 0,0 0,0 0,0 0,0 0,0 0,0 0,0 0,0 0,0 0,0 0,0 0,0 0,0 0,0 0,0 0,0 0,0 0,0 0,0 0,0 0,0 0,0 0,0 0,0 0,0 0,0 0,0 0,0 0,0 0,0 0,0 0,0 0,0 0,0 0,0 0,0 0,0 0,0 0,0 0,0 0,0 0,0 0,0 0,0 0,0 0,0 0,0 0,0 0,0 0,0 0,0 0,0 0,0 0,0 0,0 0,0 0,0 0,0 0,0 0,0 0,0 0,0 0,0 0,0 0,0 0,0 0,0 0,0 0,0 0,0 0,0 0,0 0,0 0,0 0,0 0,0 0,0 0,0 0,0 0,0 0,0 0,0 0,0 0,0 0,0 0,0 0,0 0,0 0,0 0,0l0.56 0c0.01,0 0.02,-0.01 0.02,-0.02l0 -0.37c0,-0.01 -0.01,-0.02 -0.02,-0.02zm-0.55 0.02l0.48 -0.08c0,-0 0,0 0,0 0,0 0,0 0,0l0 0.37c0,0 -0,0 -0,0.01l-0.49 0.08 0 -0.38zm0.55 0.38l0 0c0,0 -0,0.01 -0.01,0.01l-0.45 0 0.39 -0.06c0.01,-0 0.02,-0.01 0.02,-0.02 0,-0 0,-0 0,-0.01l0 -0.3 0.04 0c0,0 0.01,0 0.01,0.01l0 0.37z"/>
    </g>
   </g>
   <g>
   </g>
   <g>
   </g>
   <g>
   </g>
   <g>
   </g>
   <g>
   </g>
   <g>
   </g>
   <g>
   </g>
   <g>
   </g>
   <g>
   </g>
   <g>
   </g>
   <g>
   </g>
   <g>
   </g>
   <g>
   </g>
   <g>
   </g>
   <g>
   </g>
  </g>
 </g>
</svg>
