<?xml version="1.0" encoding="UTF-8"?>
<!DOCTYPE svg PUBLIC "-//W3C//DTD SVG 1.1//EN" "http://www.w3.org/Graphics/SVG/1.1/DTD/svg11.dtd">
<!-- Creator: CorelDRAW 2018 (64-Bit) -->
<svg xmlns="http://www.w3.org/2000/svg" xml:space="preserve" width="4.0316mm" height="4.0494mm" version="1.1" style="shape-rendering:geometricPrecision; text-rendering:geometricPrecision; image-rendering:optimizeQuality; fill-rule:evenodd; clip-rule:evenodd"
viewBox="0 0 0.57 0.57"
 xmlns:xlink="http://www.w3.org/1999/xlink">
 <defs>
  <style type="text/css">
   <![CDATA[
    .str0 {stroke:#1B2338;stroke-width:0.02;stroke-miterlimit:22.9256}
    .fil0 {fill:#1B2338}
   ]]>
  </style>
 </defs>
 <g id="Layer_x0020_1">
  <metadata id="CorelCorpID_0Corel-Layer"/>
  <g id="_2879991518256">
   <g>
    <g>
     <path class="fil0 str0" d="M0.35 0.23c-0.03,0 -0.05,0.01 -0.07,0.03 -0.02,-0.02 -0.04,-0.03 -0.07,-0.03 -0.05,0 -0.09,0.04 -0.09,0.09 0,0.03 0.01,0.05 0.03,0.08 0.01,0.02 0.03,0.04 0.05,0.05 0.04,0.03 0.08,0.04 0.08,0.04 0,0 0,0 0,0 0,0 0,-0 0,-0 0,-0 0.04,-0.02 0.08,-0.04 0.02,-0.02 0.04,-0.04 0.05,-0.05 0.02,-0.02 0.03,-0.05 0.03,-0.08 0,-0.05 -0.04,-0.09 -0.09,-0.09zm0.06 0.16c-0.01,0.02 -0.03,0.03 -0.05,0.05 -0.03,0.02 -0.06,0.04 -0.07,0.04 -0.02,-0.01 -0.14,-0.07 -0.14,-0.16 0,-0.04 0.03,-0.08 0.08,-0.08 0.02,0 0.05,0.01 0.06,0.03 0,0 0,0 0.01,0 0,0 0,-0 0.01,-0 0.01,-0.02 0.04,-0.03 0.06,-0.03 0.04,0 0.08,0.03 0.08,0.08 0,0.02 -0.01,0.05 -0.02,0.07z"/>
    </g>
   </g>
   <g>
    <g>
     <path class="fil0 str0" d="M0.52 0.06l-0.03 0 0 -0.02c0,-0.02 -0.01,-0.03 -0.03,-0.03 -0.02,0 -0.03,0.01 -0.03,0.03l0 0.02 -0.05 0 0 -0.02c0,-0.02 -0.01,-0.03 -0.03,-0.03 -0.02,0 -0.03,0.01 -0.03,0.03l0 0.02 -0.05 0 0 -0.02c0,-0.02 -0.01,-0.03 -0.03,-0.03 -0.02,0 -0.03,0.01 -0.03,0.03l0 0.02 -0.05 0 0 -0.02c0,-0.02 -0.01,-0.03 -0.03,-0.03 -0.02,0 -0.03,0.01 -0.03,0.03l0 0.02 -0.03 0c-0.02,0 -0.04,0.02 -0.04,0.04l0 0.07 0 0.01c0,0 0,0.01 0.01,0.01l0.53 0c0,0 0.01,-0 0.01,-0.01l0 -0.07c0,-0.02 -0.02,-0.04 -0.04,-0.04zm-0.08 0.01l0 -0.03c0,-0.01 0.01,-0.02 0.02,-0.02 0.01,0 0.02,0.01 0.02,0.02l0 0.03 0 0.03c0,0.01 -0,0.01 -0.01,0.02 -0,0 -0,0 -0,0 -0,0 -0,-0 -0,-0 -0.01,-0 -0.01,-0.01 -0.01,-0.02l0 -0.03zm-0.12 -0.03c0,-0.01 0.01,-0.02 0.02,-0.02 0.01,0 0.02,0.01 0.02,0.02l0 0.03 0 0.03c0,0.01 -0.01,0.02 -0.02,0.02 -0.01,0 -0.02,-0.01 -0.02,-0.02l0 -0.06zm-0.12 0.03l0 -0.03c0,-0.01 0.01,-0.02 0.02,-0.02 0.01,0 0.02,0.01 0.02,0.02l0 0.06c0,0.01 -0.01,0.02 -0.02,0.02 -0.01,0 -0.02,-0.01 -0.02,-0.02l0 -0.03zm-0.12 0l0 -0.03c0,-0.01 0.01,-0.02 0.02,-0.02 0.01,0 0.02,0.01 0.02,0.02l0 0.03 0 0.03c0,0.01 -0,0.01 -0.01,0.02 -0,0 -0,0 -0,0 -0,0 -0,-0 -0,-0 -0.01,-0 -0.01,-0.01 -0.01,-0.02l0 -0.03zm-0.07 0.09l0 -0.06c0,-0.01 0.01,-0.02 0.02,-0.02l0.03 0 0 0.02c0,0.02 0.01,0.03 0.03,0.03 0.02,0 0.03,-0.01 0.03,-0.03l0 -0.02 0.05 0 0 0.02c0,0.02 0.01,0.03 0.03,0.03 0.02,0 0.03,-0.01 0.03,-0.03l0 -0.02 0.05 0 0 0.02c0,0.02 0.01,0.03 0.03,0.03 0.02,0 0.03,-0.01 0.03,-0.03l0 -0.02 0.05 0 0 0.02c0,0.02 0.01,0.03 0.03,0.03 0.02,0 0.03,-0.01 0.03,-0.03l0 -0.02 0.03 0c0.01,0 0.02,0.01 0.02,0.02l0 0.06 -0.52 0z"/>
    </g>
   </g>
   <g>
    <g>
     <path class="fil0 str0" d="M0.55 0.2c-0,0 -0.01,0 -0.01,0.01l0 0.32c0,0.01 -0.01,0.02 -0.02,0.02l-0.48 0c-0.01,0 -0.02,-0.01 -0.02,-0.02l0 -0.32c0,-0 -0,-0.01 -0.01,-0.01 -0,0 -0.01,0 -0.01,0.01l0 0.32c0,0.02 0.02,0.04 0.04,0.04l0.48 0c0.02,0 0.04,-0.02 0.04,-0.04l0 -0.32c0,-0 -0,-0.01 -0.01,-0.01z"/>
    </g>
   </g>
   <g>
   </g>
   <g>
   </g>
   <g>
   </g>
   <g>
   </g>
   <g>
   </g>
   <g>
   </g>
   <g>
   </g>
   <g>
   </g>
   <g>
   </g>
   <g>
   </g>
   <g>
   </g>
   <g>
   </g>
   <g>
   </g>
   <g>
   </g>
   <g>
   </g>
  </g>
 </g>
</svg>
