<?xml version="1.0" encoding="UTF-8"?>
<!DOCTYPE svg PUBLIC "-//W3C//DTD SVG 1.1//EN" "http://www.w3.org/Graphics/SVG/1.1/DTD/svg11.dtd">
<!-- Creator: CorelDRAW 2018 (64-Bit) -->
<svg xmlns="http://www.w3.org/2000/svg" xml:space="preserve" width="3.9442mm" height="3.7429mm" version="1.1" style="shape-rendering:geometricPrecision; text-rendering:geometricPrecision; image-rendering:optimizeQuality; fill-rule:evenodd; clip-rule:evenodd"
viewBox="0 0 0.54 0.51"
 xmlns:xlink="http://www.w3.org/1999/xlink">
 <defs>
  <style type="text/css">
   <![CDATA[
    .fil0 {fill:#1B2338}
   ]]>
  </style>
 </defs>
 <g id="Layer_x0020_1">
  <metadata id="CorelCorpID_0Corel-Layer"/>
  <g id="_2879913531952">
   <g>
    <g>
     <path class="fil0" d="M0.37 0.24c-0,0 -0.01,0 -0.01,0.01l0 0.01c0,0 0,0.01 0.01,0.01 0,0 0.01,-0 0.01,-0.01l0 -0.01c0,-0 -0,-0.01 -0.01,-0.01z"/>
    </g>
   </g>
   <g>
    <g>
     <path class="fil0" d="M0.43 0.24c-0,0 -0.01,0 -0.01,0.01l0 0.01c0,0 0,0.01 0.01,0.01 0,0 0.01,-0 0.01,-0.01l0 -0.01c0,-0 -0,-0.01 -0.01,-0.01z"/>
    </g>
   </g>
   <g>
    <g>
     <path class="fil0" d="M0.42 0.29c-0,-0 -0.01,-0 -0.01,0 -0,0 -0.01,0 -0.01,0 -0.01,0 -0.01,-0 -0.01,-0 -0,-0 -0.01,-0 -0.01,-0 -0,0 -0,0.01 -0,0.01 0,0.01 0.01,0.01 0.02,0.01 0.01,0 0.02,-0 0.02,-0.01 0,-0 0,-0.01 -0,-0.01z"/>
    </g>
   </g>
   <g>
    <g>
     <path class="fil0" d="M0.12 0.25c-0,0 -0.01,0 -0.01,0.01l0 0.01c0,0 0,0.01 0.01,0.01 0,0 0.01,-0 0.01,-0.01l0 -0.01c0,-0 -0,-0.01 -0.01,-0.01z"/>
    </g>
   </g>
   <g>
    <g>
     <path class="fil0" d="M0.17 0.3c-0,-0 -0.01,-0 -0.01,0 -0,0 -0.01,0 -0.01,0 -0,0 -0.01,-0 -0.01,-0 -0,-0 -0.01,-0 -0.01,-0 -0,0 -0,0.01 -0,0.01 0,0.01 0.01,0.01 0.02,0.01 0.01,0 0.02,-0 0.02,-0.01 0,-0 0,-0.01 -0,-0.01z"/>
    </g>
   </g>
   <g>
    <g>
     <path class="fil0" d="M0.31 0.41c-0,0 -0.01,0 -0.01,0.01l0 0.02c0,0 0,0.01 0.01,0.01 0,0 0.01,-0 0.01,-0.01l0 -0.02c0,-0 -0,-0.01 -0.01,-0.01z"/>
    </g>
   </g>
   <g>
    <g>
     <path class="fil0" d="M0.31 0c-0.01,0 -0.03,0 -0.03,0.01 -0.01,-0.01 -0.02,-0.01 -0.03,-0.01 -0.03,0 -0.05,0.02 -0.05,0.05 0,0.03 0.01,0.05 0.04,0.07 0.02,0.02 0.04,0.02 0.04,0.02 0,0 0,0 0,0 0,0 0,-0 0,-0 0,-0 0.02,-0.01 0.04,-0.02 0.03,-0.02 0.04,-0.04 0.04,-0.07 0,-0.03 -0.02,-0.05 -0.05,-0.05zm-0.03 0.13c-0.01,-0.01 -0.07,-0.03 -0.07,-0.08 0,-0.02 0.02,-0.04 0.04,-0.04 0.01,0 0.02,0.01 0.03,0.01 0,0 0,0 0.01,0 0,0 0,-0 0.01,-0 0.01,-0.01 0.02,-0.01 0.03,-0.01 0.02,0 0.04,0.02 0.04,0.04 0,0.04 -0.06,0.07 -0.07,0.08z"/>
    </g>
   </g>
   <g>
    <g>
     <path class="fil0" d="M0.5 0.35l-0.05 -0.01c-0,-0 -0,-0 -0,-0l-0.01 -0c-0,-0 -0,-0 -0,-0l0 -0c0.02,-0.01 0.04,-0.03 0.04,-0.05l0.01 0c0.01,0 0.02,-0.01 0.02,-0.02l0 -0.01c0,-0.01 -0,-0.01 -0.01,-0.01l0 -0.01c0,-0.05 -0.04,-0.08 -0.08,-0.08l-0.02 0c-0.05,0 -0.08,0.04 -0.08,0.08l0 0.01c-0,0 -0.01,0.01 -0.01,0.01l0 0.01c0,0.01 0.01,0.02 0.02,0.02l0.01 0c0.01,0.02 0.02,0.04 0.04,0.05l0 0c0,0 -0,0 -0,0l-0.01 0c-0,0 -0,0 -0,0l-0 0c-0,0 -0,0 -0,0l-0.05 0.01c-0.02,0.01 -0.03,0.02 -0.04,0.03 -0,-0.01 -0.01,-0.01 -0.01,-0.01l0.02 -0.01c0.01,-0 0.02,-0.01 0.02,-0.03 -0,-0.02 -0.01,-0.06 -0.03,-0.11 -0.03,-0.06 -0.06,-0.08 -0.09,-0.09 -0.01,-0.01 -0.02,-0.02 -0.03,-0.02 -0.01,0 -0.02,0.01 -0.03,0.02 -0.03,0.01 -0.06,0.03 -0.09,0.09 -0.02,0.05 -0.03,0.09 -0.03,0.11 -0,0.01 0.01,0.02 0.02,0.03l0.02 0.01c-0.01,0.01 -0.02,0.03 -0.02,0.05l0 0.09c0,0 0,0.01 0.01,0.01l0.51 -0c0,0 0.01,-0 0.01,-0.01l0 -0.09c0,-0.03 -0.02,-0.05 -0.05,-0.06zm-0.25 -0.12c0.02,0.05 0.02,0.09 0.03,0.11 0,0 -0,0.01 -0.01,0.01l-0.03 0.01c-0,-0 -0,-0 -0,-0l-0.05 -0.01c-0,-0 -0,-0 -0,-0l-0.01 -0c-0,-0 -0,-0 -0,-0l0 -0c0,-0 0,-0 0,-0 0,-0 0,-0 0,-0 0,-0 0,-0 0,-0 0,-0 0,-0 0,-0 0,-0 0,-0 0,-0 0,-0 0,-0 0,-0 0,-0 0,-0 0,-0 0,-0 0,-0 0,-0 0,-0 0,-0 0,-0 0.01,-0.01 0.02,-0.02 0.03,-0.04l0.01 0c0.01,0 0.02,-0.01 0.02,-0.02l0 -0.01c0,-0 -0,-0 -0,-0 -0,-0 -0,-0 -0,-0 -0,-0 -0,-0 -0,-0 0,-0 -0,-0 -0,-0 -0,-0 -0,-0 -0,-0 -0,-0 -0,-0 -0,-0 -0,-0 -0,-0 -0,-0 -0,-0 -0,-0 -0,-0 -0,-0 -0,-0 -0,-0 -0,-0 -0,-0 -0,-0 -0,-0 -0,-0 -0,-0 -0,-0 -0,-0 -0,-0 -0,-0 -0,-0 -0,-0 -0,-0 -0,-0 -0,-0 -0,-0 -0,-0 -0,-0 -0,-0 -0,-0 -0,-0 -0,-0 -0,-0 -0,-0 -0,-0 -0,-0 -0,-0 -0,-0 -0,-0 -0,-0 -0,-0 -0,-0 -0,-0 -0,-0 -0,-0 -0,-0 0,-0 -0,-0 -0,-0 -0,-0 -0,-0 -0,-0 -0,-0 -0,-0 -0,-0 -0,-0 -0,-0 -0,-0 -0,-0 -0,-0 -0,-0 -0,-0.02 -0.01,-0.04 -0.03,-0.06 0,0 0,0 0,0 -0,-0 -0,-0 -0,-0 -0,-0 -0,-0 -0,-0 -0,-0 -0,-0 -0,-0 -0,-0 -0,-0 -0,-0 -0,-0 -0,-0 -0,-0 -0,-0 -0,-0 -0,-0 -0,-0 -0,-0 -0,-0 -0,-0 -0,-0 -0,-0 -0,-0 -0,-0 -0,-0 -0,-0 -0,-0 -0,-0 -0,-0 -0,-0 -0,-0 -0,-0 -0,-0 -0,-0 0,-0 0,-0 0,-0 0,-0 -0,-0 -0,-0 0,-0 0,-0 -0,-0 0.02,0.01 0.05,0.03 0.07,0.08zm-0.07 0.04c0,0 0.01,-0 0.01,-0.01l0 -0.01c0,-0 -0,-0 -0,-0l0.03 0 0 0.01c0,0 -0,0 -0,0 0,0 -0,0 -0,0 -0,0 -0,0 -0,0 0,0 0,0 0,0 -0,0 -0,0 -0,0 -0,0 -0,0 -0,0 -0,0 -0,0 -0,0 -0,0 -0,0 -0,0 -0,0 -0,0 -0,0 -0,0 -0,0 -0,0 -0,0 -0,0 -0,0 -0,0 -0,0 -0,0 -0,0 -0,0 -0,0 -0,0 -0,0 -0,0 -0,0 -0,0 -0,0 -0,0 -0,0 -0,0 -0,0.01 -0.01,0.02 -0.02,0.02 -0,0 -0,0 -0,0 -0,0 -0,0 -0,0 -0,0 -0,0 -0,0 -0,0 -0,0 -0,0 -0,0 -0,0 -0,0 -0,0 -0,0 -0,0 -0,0 -0,0 -0,0 -0,0 -0,0 -0,0 -0,0 -0,0 -0,0 -0,0 -0,0 -0,0 -0,0 -0,0 -0,0 -0,0 -0,0 -0,0 -0,0 -0,0 -0,0 -0,0 -0,0 -0,0 -0,0 -0,0 -0,0 -0,0 -0,0 -0,0 -0,0 -0,0 -0,0 -0,0 -0,0 -0,0 -0,0 -0,0 -0,0 -0,0 -0,0 -0,0 -0,0 -0,0 -0,0 -0,0 -0,0 -0,0 -0,0 -0,0 -0,0 -0,0 -0,0 -0,0 -0,0 -0,0 -0,0 -0,0 -0,0 -0,0 -0,0 -0,0 -0,0 -0,0 -0,-0 -0,-0 -0,-0 -0,-0 -0,-0 -0,-0 -0,-0 -0,-0 -0,-0 -0,-0 -0,-0 -0,-0 -0,-0 -0,-0 -0,-0 -0,-0 -0,-0 -0,-0 -0,-0 -0,-0 -0,-0 -0,-0 -0,-0 -0,-0 -0,-0 -0,-0 -0,-0 -0,-0 -0,-0 -0,-0 -0,-0 -0,-0 -0,-0 -0,-0 -0,-0 -0,-0 -0.01,-0 -0.01,-0 -0,-0 -0,-0 -0,-0 -0,-0 -0,-0 -0,-0 -0,-0 -0,-0 -0,-0 -0,-0 -0,-0 -0,-0 -0,-0 -0,-0 -0,-0 -0,-0 -0,-0 -0,-0 -0.01,-0.01 -0.02,-0.02 -0.02,-0.03 -0,-0 -0,-0 -0,-0 -0,-0 -0,-0 -0,-0 -0,-0 -0,-0 -0,-0 -0,-0 -0,-0 -0,-0 -0,-0 -0,-0 -0,-0 -0,-0 -0,-0 -0,-0 -0,-0 -0,-0 -0,-0 -0,-0 -0,-0 -0,-0 -0,-0 -0,-0 -0,-0 -0,-0 -0,-0 -0,-0 0,-0 0,-0 -0,-0 -0,-0 -0,-0 -0,-0 -0,-0 -0,-0 -0,-0 -0,-0 -0,-0 -0,-0l0 -0.01c0,-0 0,-0 0,-0 0,-0 0,-0 0,-0 0,-0 0,-0 0,-0 0,-0 0,-0 0,-0 0,0 0,-0 0,-0 0,-0 0,-0 0,-0 0,-0 0,-0 0,-0 0,-0 0,-0 0,-0 0,-0 0,-0 0,-0 0,-0 0,-0 0,-0 0,-0 0,-0 0,-0 0,-0 0,-0 0,-0 0,-0 0,-0 0,-0 0,-0 0,-0 0,-0 0,-0 0,-0 0,-0l0.01 -0.02c0,-0 0,-0 0,-0 0,-0 0,-0 0,0 0.03,0.02 0.05,0.03 0.07,0.03 -0,0 -0,0 -0,0.01l0 0.01c0,0 0,0.01 0.01,0.01zm0.05 -0c0,-0 0,-0 0,-0 0,-0 0,-0 0,-0 0,-0 0,-0 0,-0l0 -0.01 0 0 0 0c0,0 0,0 0,0l0 0.01c0,0 -0,0 -0,0l-0 0zm-0.1 -0.12c0,-0 0,-0 0,-0 0,-0 0,-0 0,-0 0,-0 0,-0 0,-0 0,-0 0,-0 0,-0 0,-0 0,-0 0,-0 0,-0 0,-0 0,-0 0,-0.01 0.01,-0.01 0.02,-0.01 0.01,0 0.02,0 0.02,0.01 0,0 0,0 0,0 0,0 0,0 0,0 0,0 0,0 0,0 0,0 0,0 0,0 0,0 0,0 0,0 0,0 0,0 0,0 0,0 0,0 0,0 -0,-0 -0,-0 -0,-0 -0,-0 -0,-0 -0,-0 -0,-0 -0,-0 -0,-0 -0,-0 -0,-0 -0,-0 -0,-0 -0,-0 -0,-0 -0,-0 -0,-0 -0,-0 -0,-0 -0,-0 -0,-0 -0,-0 -0,-0 -0,-0 -0,-0 -0,-0 -0,-0 -0,0 -0,0 -0,0 -0,0 -0,0 -0,0 -0,0 -0,0 -0,0 -0,0 -0,0 -0,0 -0,0 -0,0 -0,0 -0,0 -0,0 -0,0 -0,0 -0,0 -0,0 -0,0 -0,0 -0,0 -0,0 -0,0 -0,0 0,-0 0,-0 0,-0zm-0.01 0.02c0,-0 0,-0 0,-0 0,-0 0,-0 0.01,-0 0,-0 0,-0 0,-0 0,-0 0,-0 0,-0 0,-0 0,-0 0,-0 0,-0 0,-0 0,-0 0,-0 0,-0 0,-0 0,-0 0,-0 0,-0 0,-0 0,-0 0,-0 0,-0 0,-0 0,-0 0,-0 0,-0 0,-0 0,-0 0,-0 0,-0 0,-0 0,-0 0,-0 0,-0 0,-0 0,-0 0,-0 0,-0 0,-0 0,-0 0,-0 0,-0 0,-0 0,-0 0,-0 0,-0 0,-0 0,-0 0,0 0,0 0,0 0,0 0,0 0,0 0,0 0,0 0,0 0,0 0,0 0,0 0,0 0,0 0,0 0,0 0,0 0,0 0,0 0,0 0,0 0,0 0,0 0,0 0,0 0,0 0,0 0,0 0,0 0,0 0,0 0,0 0,0 0,0 0,0 0,0 0,0 0,0 0,0 0,0 0,0 0,0 0,0 0,0 0,0 0,0 0,0 0,0 0,0 0,0 0.01,0 0,0 0,0 0,0 0,0 0,0 0,0 0,0 0,0 0,0 0,0 0,0 0,0 0,0 0,0 0,0 0,0 0,0 0,0 0,0 0,0 0,0 0,0 0,0 0,0 0,0 0,0 0,0 0,0 0,0 0,0 0.01,0.01 0.02,0.03 0.03,0.05 0,0 0,0 0,0 0,0 0,0 0,0 0,0 0,0 0,0 0,0 0,0 0,0l-0 0 -0.04 0c-0.02,0 -0.05,-0.02 -0.06,-0.03 -0,-0 -0,-0 -0,-0 -0,-0 -0,-0 -0,-0 -0,-0 -0,-0 -0,-0 -0,-0 -0,-0 -0,-0 -0,-0 -0,-0 -0,-0 -0,-0 -0,-0 -0,-0 -0,-0 -0,-0 -0,-0 -0,-0 -0,-0 -0,-0 -0,-0 -0,-0 -0,-0 -0,-0 -0,-0 -0,-0 -0,-0 -0,-0 -0,-0 -0,-0 -0,-0 -0,-0 -0,-0 -0,-0 -0,-0 -0,0 -0,-0 -0,-0 -0,-0 -0,-0 -0,-0 -0,0 -0,0 -0,0 -0,0 -0,0 -0,0 -0,0 -0,0 -0,0 -0,0 -0,0 -0,0 -0,0 -0,0 -0,0 -0,0 -0,0 -0,0 -0,0 -0,0 -0,0 -0,0 -0,0 -0,0 -0,0 -0,0 -0,0 -0.01,0 -0.01,0.01 -0.01,0.01l-0.01 0.02 -0 0 -0 0c0,-0 0,-0 0,-0 0,-0 0,-0 0,-0 0,-0 0,-0 0,-0 0,-0 0,-0 0,-0 0,-0.02 0.01,-0.04 0.03,-0.05 0,-0 0,-0 0,-0 0,-0 0,-0 0,-0 0,-0 0,-0 0,-0 0,-0 0,-0 0,-0 0,-0 0,-0 0,-0 0,-0 0,-0 0,-0 0,-0 0,-0 0,-0 0,-0 0,-0 0,-0 0,-0 0,-0 0,-0zm-0.09 0.17c-0,-0 -0.01,-0.01 -0.01,-0.01 0,-0.02 0.01,-0.06 0.03,-0.11 0.02,-0.05 0.04,-0.07 0.07,-0.08 0,0 0,0 0,0 -0,0 -0,0 -0,0 0,0 0,0 0,0 -0,0 -0,0 -0,0 -0,0 -0,0 -0,0 -0,0 -0,0 -0,0 -0,0 -0,0 -0,0 -0,0 -0,0 -0,0 -0,0 -0,0 -0,0 -0,0 -0,0 -0,0 -0,0 -0,0 -0,0 -0,0 -0,0 -0,0 -0,0 -0,0 -0,0 -0,0 -0,0 -0,0 -0.02,0.01 -0.03,0.04 -0.03,0.06 -0,0 -0,0 -0,0 -0,0 -0,0 -0,0 -0,0 -0,0 -0,0 -0,0 -0,0 -0,0 -0,0 -0,0 -0,0 -0,0 -0,0 -0,0 -0,0 -0,0 -0,0 -0,0 -0,0 -0,0 -0,0 -0,0 -0,0 -0,0 -0,0 -0,0 -0,0 -0,0 -0,0 -0,0 -0,0 -0,0 -0,0 -0,0 -0,0 -0,0 -0,0 -0,0 -0,0 -0,0 -0,0 -0,0 -0,0 -0,0 -0,0 -0,0 -0,0 -0,0 -0,0 -0,0 -0,0 -0,0 -0,0 -0,0 -0,0 -0,0 -0,0 -0,0 -0,0 -0,0 -0,0 -0,0 0,0 -0,0 -0,0 -0,0 -0,0 -0,0 -0,0 -0,0 -0,0 -0,0 -0,0 -0,0l0 0.01c0,0.01 0.01,0.02 0.02,0.02l0.01 0c0,0 0,0 0,0 0,0 0,0 0,0 0.01,0.02 0.02,0.04 0.04,0.05 0,0 0,0 0,0 0,0 0,0 0,0l0 0c0,0 -0,0 -0,0l-0.01 0c-0,0 -0,0 -0,0l-0.05 0.01c-0,0 -0,0 -0,0 -0,0 -0,0 -0,0l-0.03 -0.01zm0.05 -0.08c0,0 0,0 0,0 0,0 0,0 0,0l-0 0c-0,0 -0,-0 -0,-0l0 -0.01c0,-0 0,-0 0,-0l0 0 0 0 0 0.01c0,0 0,0 0,0zm0.19 0.23l-0 0 -0.02 0 0 -0.07c0,-0 -0,-0.01 -0,-0.01 -0.01,-0.01 -0.03,-0.02 -0.04,-0.02 -0.02,0 -0.03,0.01 -0.04,0.02 -0,0 -0,0 -0,0 -0,0 -0,-0 -0,-0 -0.01,-0.01 -0.03,-0.02 -0.04,-0.02 -0.02,0 -0.03,0.01 -0.04,0.02 -0,0 -0,0.01 -0,0.01l0 0.01c0,0 0,0.01 0.01,0.01 0,0 0.01,-0 0.01,-0.01l0 -0.01c0,-0 0,-0 0,-0 0.01,-0.01 0.02,-0.02 0.03,-0.02 0.01,0 0.02,0 0.03,0.01 0,0 0.01,0.01 0.02,0.01 0.01,0 0.01,-0 0.02,-0.01 0.01,-0.01 0.02,-0.01 0.03,-0.01 0.01,0 0.02,0.01 0.03,0.02 0,0 0,0 0,0l0 0.07 -0.15 0 0 -0.02c0,-0 -0,-0.01 -0.01,-0.01 -0,0 -0.01,0 -0.01,0.01l0 0.02 -0.02 0 0 -0.08c0,-0.02 0.01,-0.04 0.03,-0.04 0,-0 0,-0 0,-0 0,-0 0,-0 0,-0 0,-0 0,-0 0,-0l0 0 0.05 -0.01 0.01 -0c0,-0 0,-0 0,-0 0,-0 0,-0 0,-0 0,-0 0,-0 0,-0 0,-0 0,-0 0,-0 0,-0 0,-0 0,-0 0,-0 0,-0 0,-0 0,-0 0,-0 0,-0 0,-0 0,-0 0,-0 0,-0 0,-0 0,-0 0,-0 0,-0 0,-0 0,-0 0,-0 0,-0 0,-0 0,-0 0,-0 0,-0 0,-0 0,-0 0,-0 0,-0 0,-0 0,-0 0,-0 0,-0 0,-0 0,-0 0,-0 0,-0 0,-0 0,-0 0,-0 0,-0 0,-0 0,-0 0,-0 0,-0 0,-0 0,-0 0,-0 0,-0 0,-0 0,-0 0,-0 0,-0 0,-0 0,-0 0,-0 0,-0 0,-0 0,-0 0,-0 0,-0 0,-0 0,-0 0,-0 0,-0 0,-0 0,-0 0,-0 0,-0 0,-0 0,-0 0,-0 0,-0 0,-0 0,-0 0,-0 0,-0 0,-0 0,-0 0,-0 0,-0 0,0 0,0 0,0 0,0 0,0 0,0 0,0 0,0 0,0 0,0 0,0 0,0 0,0 0,0 0,0 0,0 0,0 0,0 0,0 0,0 0,0 0,0 0,0 0,0 0,0 0,0 0,0 0,0 0,0 0,0 0,0 0,-0 0,-0 0,-0 0,-0 0,-0 0,-0 0,-0 0,-0 0,-0 0,-0 0,-0 0,-0 0,-0 0,-0 0,-0 0,-0 0,-0 0,-0 0,-0 0,-0 0,-0 0,-0 0,-0 0,0 0,0 0,0 0,0 0,0 0,0 0,0 0,0 0,0 0,0 0,0 0,0 0,0 0,0 0,0 0,0 0,0 0,0 0,0 0,0 0,0 0,0 0,0 0,0 0,0 0,0 0,0 0,0 0,0 0,0 0,0 0,0 0,0 0,0 0,0 0,0 0,0 0,0 0,0 0,0 0,0 0,0 0,0 0,0 0,0 0,0 0,0 0,0 0,0 0,0 0,0 0,0 0,0 0,0 0,0 0,0 0,0 0,0 0,0 0,0 0,0 0,0 0,0 0,0 0,0 0,0 0,0 0,0 0,0 0,0 0,0 0,0 0,0 0,0 0,0 0,0 0,0 0,0 0,0 0,0 0,0 0,0 0,0 0,0 0,0 0,0 0,0 0,0 0,0 0,0 0,0 0,0 0,0l0.01 0 0.05 0.01c0,0 0,0 0,0 0,0 0,0 0,0 0.02,0.01 0.03,0.02 0.03,0.04l0 0.08zm0.19 -0.13l0.01 0.02 -0.03 0.05 0.02 -0.07zm-0.04 0.02l-0.01 0 -0 -0.01 0.01 -0.01 0.01 0.01 -0 0.01zm0 0.05l-0 0.01 -0 0.01 -0.01 -0.02 0 -0.03 0 0 0 0.03zm-0.03 -0.08c0,0 0.01,0 0.01,0l-0.02 0.02c-0,0 -0,0 -0,0l-0.01 -0.02 0.01 0zm-0 -0.02c0,-0 0,-0.01 0,-0.01 0,0 0,0 0,0 0,0 0,0 0,0 0,0 0,0 0,0 0,0 0,0 0,0 0,0 0,0 0,0 0,0 0,0 0,0 0,0 0,0 0,0 0,0 0,0 0,0 0,0 0,0 0,0 0,0 0,0 0,0 0,0 0,-0 0,-0 0,0 0,-0 0,-0 0,-0 0,-0 0,-0 0,-0 0,-0 0,-0 0,-0 0,-0 0,-0 0,-0 0,-0 0,-0 0,-0 0,-0 0,-0 0,-0 0,-0 0,-0 0,-0 0,-0 0,-0 0,-0 0,-0 0,-0 0,0 0,0.01 0,0.01l-0 0c-0.01,0 -0.02,0 -0.03,0l-0 -0zm0.03 0.02c0,-0 0.01,-0 0.01,-0l0.01 -0 -0.01 0.02c-0,-0 -0,-0 -0,-0l-0.02 -0.02zm0.07 -0.1c0,-0 0,-0 0,-0 0,-0 0,-0 0,-0l0 -0.01 0 0c0,0 0,0 0,0 0,0 0,0 0,0 0,0 0,0 0,0 0,0 0,0 0,0 0,0 0,0 0,0 0,0 0,0 0,0 0,0 0,0 0,0l0 0.01c0,0 -0,0 -0,0l-0 0c0,-0 0,-0 0,-0zm-0.16 0l0 0c-0,0 -0,-0 -0,-0l0 -0.01c0,-0 0,-0 0,-0 0,-0 0,-0 0,-0 0,-0 0,-0 0,-0 0,-0 0,-0 0,-0 0,0 0,-0 0,-0l0 0 0 0.01c0,0 0,0 0,0 0,0 0,0 0,0 0,0 0,0 0,0l-0 0zm0.01 -0.06c-0,0 -0,0 -0,0 -0,0 -0,0 -0,0 -0,0 -0,0 -0,0 -0,0 -0,0 -0,0 -0,0 -0,0 -0,0 -0,0 -0,0 -0,0 -0,0 -0,0 -0,0 -0,0 -0,0 -0,0 -0,0 -0,0 -0,0 -0,0 -0,0 -0,0 -0,0 -0,0 -0,0 -0,0 -0,0 -0,0 -0,0 -0,0 -0,0 -0,0 -0,0 -0,0 -0,0 -0,0 -0,0 -0,0 -0,0 -0,0 0,0 0,0 -0,0 0,0 -0,0 -0,0 0,0 -0,0 -0,0 0,0 0,0 -0,0 -0,0 -0,0 -0,0 0,0 -0,0 -0,0 -0,0 -0,0 -0,0 -0,0 -0,0.01 -0,0.01l0 -0.01c0,-0.04 0.03,-0.07 0.07,-0.07l0.02 0c0.04,0 0.07,0.03 0.07,0.07l0 0.01c-0,-0 -0,-0 -0,-0 0,-0 -0,-0 -0,-0l-0 -0c0,-0 0,-0 0,-0 -0,-0 -0,-0 -0,-0 0,0 0,-0 0,-0l-0 -0c0,-0 0,-0 -0,-0 -0,-0 -0,-0 -0,-0 0,-0 0,-0 -0,-0l-0 -0c-0,-0 -0,-0 -0,-0 0,0 0,0 0,0 -0,-0 -0,-0 -0,-0 -0,-0 -0,-0 -0,-0 -0,-0 -0,-0 -0,-0 -0,-0 -0,-0 -0,-0 -0,-0 -0,-0 -0,-0 -0,-0 -0,-0 -0,-0 -0,-0 -0,-0 -0,-0 -0,-0 -0,-0 -0,-0 -0,-0 -0,-0 -0,-0 -0,-0 -0,-0 -0,-0 -0,-0 -0,-0 -0,-0 -0,-0 -0,-0 -0,-0 -0,-0 -0,-0 -0,-0 -0,-0 -0,-0 -0,-0 -0,-0 -0,-0 -0,-0 -0,-0 -0,-0 -0,-0 -0,-0 -0,-0 -0,-0 -0,0 -0,0 -0,0l0 0 -0 0c-0,0 -0,0 -0,0 -0.01,0.01 -0.02,0.01 -0.03,0.01 -0.01,0 -0.03,-0 -0.04,-0.01 -0.02,-0.01 -0.04,-0.01 -0.05,-0.01 -0,0 -0,0 -0,0 -0,0 -0,0 -0,0 -0,0 -0,0 -0.01,0zm0.01 0.07c-0,-0 -0,-0 -0,-0 -0,-0 -0,-0 -0,-0 -0,-0 -0,-0 -0,-0 -0,-0 -0,-0 -0,-0 -0,-0 -0,-0 -0,-0 0,-0 -0,-0 -0,-0 -0,-0 -0,-0 -0,-0l0 -0.02c0,-0 0,-0 0,-0 0,0 0,-0 0,-0 0,-0 0,-0 0,-0 0,-0 0,-0 0,-0 0,-0 0,-0 0,-0 0,-0 0,-0 0,-0l0 -0c0,-0 0,-0 0,-0 0,0 0,0 0,0 0,-0 0,-0 0,-0l0 -0c0,-0 0,-0 0,-0 0,-0 0,-0 0,-0 0,-0 0,-0 0,-0 0,-0 0,-0 0,-0 0,-0 0,-0 0,-0l0 -0c0,-0 0,-0 0,-0 0,-0 0,-0 0,-0l0 -0c0,-0 0,-0 0,-0 0,-0 0,-0 0,-0 0,-0 0,-0 0,-0 0,-0 0,-0 0,-0 0.01,-0 0.02,0 0.03,0.01 0,0 0,0 0.01,0 0.01,0 0.02,0.01 0.03,0.01 0,0 0.01,0 0.02,0 0,0 0,-0 0.01,-0 0,-0 0,-0 0.01,-0 0,-0 0,-0 0,-0 0,-0 0,-0 0,-0 0,-0 0,-0 0,-0 0,-0 0,-0 0,-0 0,-0 0,-0 0,-0 0,-0 0,-0 0,-0 0,-0 0,-0 0,-0 0,-0 0,-0 0,-0 0,-0 0,-0 0,-0 0,-0 0,-0 0,-0 0,-0 0,-0 0,-0l0 0c0,0 0,0 0,0 0,0 0,0 0,0l0 0c0,0 0,0 0,0 0,0 0,0 0,0 0,0 0,0 0,0 0,0 0,0 0,0l0 0.02c0,0 -0,0 -0,0 -0,0 -0,0 -0,0 -0,0 -0,0 -0,0 0,0 -0,0 -0,0 -0,0 -0,0 -0,0 -0,0 -0,0 -0,0 -0,0 -0,0 -0,0 -0,0.02 -0.02,0.04 -0.04,0.05 -0,0 -0,0 -0,0 -0,0 -0,0 -0,0 -0,0 -0,0 -0,0 -0,0 -0,0 -0,0 -0,0 -0,0 -0,0 -0,0 -0,0 -0,0 -0,0 -0,0 -0,0 -0,0 -0,0 -0,0 -0,0 -0,0 -0,0 -0,0 -0,0 -0,0 -0,0 -0,0 -0,0 -0,0 -0,0 -0,0 -0,0 -0,-0 -0,-0 -0,-0 -0,-0 -0,-0 -0,-0 -0,-0 -0,-0 -0,-0 -0,-0 -0,-0 -0,-0 -0,-0 -0,-0 -0,-0 -0,-0 -0,-0 -0,-0 -0,-0 -0,-0 -0,-0 -0,-0 -0,-0 -0,-0 -0,-0 -0,-0 -0,-0 -0,-0 -0,-0 -0,-0 -0,-0 -0,-0 -0,-0 -0,-0 -0,-0 -0,-0 -0,-0 -0,-0 -0,-0 -0,-0 -0,-0 -0.02,-0.01 -0.03,-0.02 -0.04,-0.05zm0.02 0.1l0.02 0.07 -0.03 -0.05 0.01 -0.02zm0.14 0.13l0 -0.08c0,-0 -0,-0.01 -0.01,-0.01 -0,0 -0.01,0 -0.01,0.01l0 0.08 -0.16 0 0 -0.02c0,-0 -0,-0.01 -0.01,-0.01 -0,0 -0.01,0 -0.01,0.01l0 0.02 -0.03 0 0 -0.08 0 -0c0,-0.02 0.01,-0.04 0.03,-0.05l0.03 -0.01 -0.01 0.02c-0,0 -0,0.01 0,0.01l0.06 0.1c0,0 0,0 0,0 0,0 0,0 0,0 0,0 0,0 0,0 0,0 0,0 0,0 0,0 0,0 0,0 0,0 0,0 0,0 0,0 0,0 0,0 0,0 0,0 0,0 0,0 0,0 0,0 0,0 0,0 0,0 0,0 0,0 0,0 0,0 0,0 0,0 0,0 0,0 0,0 0,0 0,0 0,0 0,0 0,0 0,0 0,0 0,0 0,0 0,0 0,0 0,0 0,0 0,0 0,0 0,0 0,0 0,0 0,0 0,0 0,0 0,0 0,0 0,0 0,0 0,0 0,0 0,0 0,0 0,0 0,0 0,0 0,0 0,0 0,0 0,0 0,0 0,0 0,0 0,0 0,0 0,0 0,0 0,0 0,0 0,0 0,0 0,0 0,0 0,-0 0,-0 0,-0 0,-0 0,-0 0,-0 0,-0 0,-0 0,-0 0,-0 0,-0 0,-0 0,-0 0,-0 0,-0 0,-0 0,-0 0,0 0,0 0,0 0,-0 0,-0 0,-0 0,-0 0,-0 0,-0 0,-0 0,-0 0,-0 0,-0 0,-0 0,-0 0,-0 0,-0 0,-0 0,-0 0,-0 0,-0 0,-0 0,-0 0,-0 0,-0 0,-0 0,-0 0,-0 0,-0 0,-0 0,-0 0,-0 0,-0 0,-0 0,-0 0,-0 0,-0 0,-0 0,-0 0,-0 0,-0 0,-0 0,-0 0,-0 0,-0 0,-0 0,-0 0,-0 0,-0 0,-0 0,-0 0,-0 0,-0 0,-0 0,-0 0,-0 0,-0l0.06 -0.1c0,-0 0,-0.01 0,-0.01l-0.01 -0.02 0.03 0.01c0.02,0.01 0.03,0.03 0.03,0.05l0 0.08 -0.03 0z"/>
    </g>
   </g>
   <g>
   </g>
   <g>
   </g>
   <g>
   </g>
   <g>
   </g>
   <g>
   </g>
   <g>
   </g>
   <g>
   </g>
   <g>
   </g>
   <g>
   </g>
   <g>
   </g>
   <g>
   </g>
   <g>
   </g>
   <g>
   </g>
   <g>
   </g>
   <g>
   </g>
  </g>
 </g>
</svg>
