<?xml version="1.0" encoding="UTF-8"?>
<!DOCTYPE svg PUBLIC "-//W3C//DTD SVG 1.1//EN" "http://www.w3.org/Graphics/SVG/1.1/DTD/svg11.dtd">
<!-- Creator: CorelDRAW 2018 (64-Bit) -->
<svg xmlns="http://www.w3.org/2000/svg" xml:space="preserve" width="3.9564mm" height="4.1367mm" version="1.1" style="shape-rendering:geometricPrecision; text-rendering:geometricPrecision; image-rendering:optimizeQuality; fill-rule:evenodd; clip-rule:evenodd"
viewBox="0 0 0.55 0.57"
 xmlns:xlink="http://www.w3.org/1999/xlink">
 <defs>
  <style type="text/css">
   <![CDATA[
    .str0 {stroke:#1B2338;stroke-width:0.02;stroke-miterlimit:22.9256}
    .fil0 {fill:#1B2338}
   ]]>
  </style>
 </defs>
 <g id="Layer_x0020_1">
  <metadata id="CorelCorpID_0Corel-Layer"/>
  <g id="_2879987283232">
   <g>
    <g>
     <path class="fil0 str0" d="M0.19 0.2l-0.03 0c-0,0 -0.01,0 -0.01,0.01 0,0 0,0.01 0.01,0.01l0.03 0c0,0 0.01,-0 0.01,-0.01 0,-0 -0,-0.01 -0.01,-0.01z"/>
    </g>
   </g>
   <g>
    <g>
     <path class="fil0 str0" d="M0.39 0.2l-0.17 0c-0,0 -0.01,0 -0.01,0.01 0,0 0,0.01 0.01,0.01l0.17 0c0,0 0.01,-0 0.01,-0.01 0,-0 -0,-0.01 -0.01,-0.01z"/>
    </g>
   </g>
   <g>
    <g>
     <path class="fil0 str0" d="M0.32 0.26l-0.17 0c-0,0 -0.01,0 -0.01,0.01 0,0 0,0.01 0.01,0.01l0.17 0c0,0 0.01,-0 0.01,-0.01 0,-0 -0,-0.01 -0.01,-0.01z"/>
    </g>
   </g>
   <g>
    <g>
     <path class="fil0 str0" d="M0.39 0.26l-0.03 0c-0,0 -0.01,0 -0.01,0.01 0,0 0,0.01 0.01,0.01l0.03 0c0,0 0.01,-0 0.01,-0.01 0,-0 -0,-0.01 -0.01,-0.01z"/>
    </g>
   </g>
   <g>
    <g>
     <path class="fil0 str0" d="M0.53 0.2c-0,-0 -0,-0 -0,-0 -0.01,-0.01 -0.01,-0.01 -0.02,-0.01 -0,-0 -0,-0 -0,-0 -0,-0 -0,-0 -0,-0 -0,0 -0,-0 -0,-0 -0,-0 -0,-0 -0,-0l-0.03 0 0 -0.15c0,-0.01 -0.01,-0.03 -0.03,-0.03l-0.35 0c-0.01,0 -0.03,0.01 -0.03,0.03l0 0.15 -0.03 0c-0,0 -0,0 -0,0 -0,0 -0,0 -0,0 -0,0 -0,0 -0,0 -0,0 -0,0 -0,0 -0.01,0 -0.02,0 -0.02,0.01 -0,0 -0,0 -0,0 -0.01,0.01 -0.01,0.02 -0.01,0.03l0 0.3c0,0.01 0,0.02 0.01,0.03 0,0 0,0 0,0 0,0 0,0 0.01,0 0,0 0,0 0,0 0,0 0,0 0,0 0,0 0,0 0,0 0,0 0,0 0,0 0,0 0,0 0,0 0,0 0,0 0,0 0,0 0,0 0,0 0,0 0,0 0,0 0,0 0,0 0,0 0,0 0,0 0,0 0,0 0,0 0,0 0,0 0,0 0,0 0,0 0,0 0,0 0,0 0,0 0,0 0,0 0,0 0,0 0,0 0,0 0,0 0,0 0,0 0,0 0,0 0,0 0,0 0,0 0,0 0,0 0,0 0,0 0,0 0,0 0,0 0,0 0,0 0,0 0,0l0.45 0c0,0 0,-0 0,-0 0,-0 0,-0 0,-0 0,-0 0,-0 0,-0 0,-0 0,-0 0,-0 0,-0 0,-0 0,-0 0,-0 0,-0 0,-0 0,-0 0,-0 0,-0 0,-0 0,-0 0,-0 0,-0 0,-0 0,-0 0,-0 0,-0 0,-0 0,-0 0,-0 0,-0 0,-0 0,-0 0,-0 0,-0 0,-0 0,-0 0,-0 0,-0 0,-0 0,-0 0,-0 0,-0 0,-0 0,-0 0,-0 0,-0 0,-0 0,-0 0,-0 0,-0 0,-0 0,-0 0,-0 0,-0 0,-0 0,-0 0,-0 0,-0 0,-0 0,-0 0,-0 0,-0 0,-0 0,-0 0,-0 0.01,-0 0,-0 0,-0 0,-0 0.01,-0.01 0.01,-0.02 0.01,-0.03l0 -0.3c0,-0.01 -0,-0.02 -0.01,-0.03zm-0.05 0l0.03 0c0,0 0,0 0,0 0,0 0,0 0,0 0,0 0,0 0,0 0,0 0,0 0,0 0,0 0,0 0,0 0,0 0,0 0,0 0,0 0,0 0,0l-0.03 0.03 0 -0.03zm-0.38 -0.17c0,-0.01 0,-0.01 0.01,-0.01l0.35 0c0.01,0 0.01,0 0.01,0.01l0 0.21 -0.17 0.15c-0,0 -0,0 -0,0 -0.01,0 -0.02,0 -0.02,-0l-0.17 -0.15 0 -0.21zm-0.05 0.17c0,-0 0,-0 0,-0 0,-0 0,-0 0,-0 0,-0 0,-0 0,-0 0,-0 0,-0 0,-0 0,-0 0,-0 0,-0 0,-0 0,-0 0,-0l0.03 0 0 0.03 -0.03 -0.03c0,-0 0,-0 0,-0zm-0.01 0.33c-0,-0 -0,-0.01 -0,-0.01l0 -0.3c0,-0 0,-0.01 0,-0.01l0.18 0.16 -0.18 0.16zm0.48 0.01c-0,0 -0,0 -0,0 -0,0 -0,0 -0,0 -0,0 -0,0 -0,0 -0,0 -0,0 -0,0 -0,0 -0,0 -0,0 -0,0 -0,0 -0,0l-0.45 0c-0,0 -0,-0 -0,-0 -0,-0 -0,-0 -0,-0 -0,-0 -0,-0 -0,-0 -0,-0 -0,-0 -0,-0 -0,-0 -0,-0 -0,-0 -0,-0 -0,-0 -0,-0 -0,-0 -0,-0 -0,-0l0.18 -0.15 0.03 0.02 0 0c0,0 0,0 0,0 0.01,0 0.01,0.01 0.02,0.01 0,0 0.01,-0 0.01,-0 0,-0 0.01,-0 0.01,-0.01l0.03 -0.02 0.18 0.15c-0,0 -0,0 -0,0zm0.02 -0.02l0 0c0,0 -0,0.01 -0,0.01l-0.18 -0.16 0.18 -0.16c0,0 0,0.01 0,0.01l0 0.3z"/>
    </g>
   </g>
   <g>
    <g>
     <path class="fil0 str0" d="M0.3 0.05c-0.01,0 -0.02,0 -0.03,0.01 -0.01,-0.01 -0.02,-0.01 -0.03,-0.01 -0.02,0 -0.04,0.02 -0.04,0.04 0,0.05 0.06,0.07 0.07,0.07 0,0 0,0 0,0 0,0 0,-0 0,-0 0,-0 0.07,-0.03 0.07,-0.07 0,-0.02 -0.02,-0.04 -0.04,-0.04zm-0.03 0.1c-0,-0 -0.02,-0.01 -0.03,-0.02 -0.02,-0.01 -0.03,-0.03 -0.03,-0.04 0,-0.01 0.01,-0.03 0.03,-0.03 0.01,0 0.02,0 0.02,0.01 0,0 0,0 0.01,0 0,0 0,-0 0.01,-0 0.01,-0.01 0.01,-0.01 0.02,-0.01 0.01,0 0.03,0.01 0.03,0.03 0,0.03 -0.04,0.05 -0.05,0.06z"/>
    </g>
   </g>
   <g>
   </g>
   <g>
   </g>
   <g>
   </g>
   <g>
   </g>
   <g>
   </g>
   <g>
   </g>
   <g>
   </g>
   <g>
   </g>
   <g>
   </g>
   <g>
   </g>
   <g>
   </g>
   <g>
   </g>
   <g>
   </g>
   <g>
   </g>
   <g>
   </g>
  </g>
 </g>
</svg>
