<?xml version="1.0" encoding="UTF-8"?>
<!DOCTYPE svg PUBLIC "-//W3C//DTD SVG 1.1//EN" "http://www.w3.org/Graphics/SVG/1.1/DTD/svg11.dtd">
<!-- Creator: CorelDRAW 2018 (64-Bit) -->
<svg xmlns="http://www.w3.org/2000/svg" xml:space="preserve" width="3.9758mm" height="3.6526mm" version="1.1" style="shape-rendering:geometricPrecision; text-rendering:geometricPrecision; image-rendering:optimizeQuality; fill-rule:evenodd; clip-rule:evenodd"
viewBox="0 0 0.56 0.51"
 xmlns:xlink="http://www.w3.org/1999/xlink"
 enable-background="new 0 0 24 24">
 <defs>
  <style type="text/css">
   <![CDATA[
    .str0 {stroke:#1B2338;stroke-width:0.01;stroke-miterlimit:22.9256}
    .fil0 {fill:#1B2338}
   ]]>
  </style>
 </defs>
 <g id="Layer_x0020_1">
  <metadata id="CorelCorpID_0Corel-Layer"/>
  <g id="_2879992587840">
   <g>
    <path class="fil0 str0" d="M0.4 0.51c-0,0 -0.01,-0 -0.01,-0l-0.35 -0.09c-0.02,-0.01 -0.04,-0.03 -0.03,-0.06l0.04 -0.16c0,-0.01 0.01,-0.01 0.01,-0.01 0.01,0 0.01,0.01 0.01,0.01l-0.04 0.16c-0,0.01 0,0.02 0.02,0.03l0.35 0.09c0.01,0 0.02,-0 0.03,-0.02l0.02 -0.07c0,-0.01 0.01,-0.01 0.01,-0.01 0.01,0 0.01,0.01 0.01,0.01l-0.02 0.07c-0.01,0.02 -0.02,0.03 -0.04,0.03z"/>
   </g>
   <g>
    <path class="fil0 str0" d="M0.51 0.37l-0.36 0c-0.03,0 -0.05,-0.02 -0.05,-0.05l0 -0.27c0,-0.03 0.02,-0.05 0.05,-0.05l0.36 0c0.03,0 0.05,0.02 0.05,0.05l0 0.27c0,0.03 -0.02,0.05 -0.05,0.05zm-0.36 -0.34c-0.01,0 -0.02,0.01 -0.02,0.02l0 0.27c0,0.01 0.01,0.02 0.02,0.02l0.36 0c0.01,0 0.02,-0.01 0.02,-0.02l0 -0.27c0,-0.01 -0.01,-0.02 -0.02,-0.02l-0.36 0z"/>
   </g>
   <g>
    <path class="fil0 str0" d="M0.21 0.17c-0.03,0 -0.05,-0.02 -0.05,-0.05 0,-0.03 0.02,-0.05 0.05,-0.05 0.03,0 0.05,0.02 0.05,0.05 0,0.03 -0.02,0.05 -0.05,0.05zm0 -0.07c-0.01,0 -0.02,0.01 -0.02,0.02 0,0.01 0.01,0.02 0.02,0.02 0.01,0 0.02,-0.01 0.02,-0.02 0,-0.01 -0.01,-0.02 -0.02,-0.02z"/>
   </g>
   <g>
    <path class="fil0 str0" d="M0.11 0.35c-0,0 -0.01,-0 -0.01,-0 -0,-0 -0,-0.01 0,-0.02l0.11 -0.11c0.01,-0.01 0.04,-0.01 0.05,0l0.03 0.03 0.09 -0.11c0.01,-0.01 0.02,-0.01 0.03,-0.01l0 0c0.01,0 0.02,0 0.03,0.01l0.12 0.14c0,0 0,0.01 -0,0.02 -0,0 -0.01,0 -0.02,-0l-0.12 -0.14c-0,-0 -0.01,-0 -0.01,-0 -0,-0 -0.01,0 -0.01,0l-0.1 0.12c-0,0 -0.01,0 -0.01,0 -0,0 -0.01,-0 -0.01,-0l-0.04 -0.04c-0,-0 -0.01,-0 -0.02,0l-0.11 0.11c-0,0 -0.01,0 -0.01,0l0 0z"/>
   </g>
  </g>
 </g>
</svg>
